<svg width="10" height="11" viewBox="0 0 10 11" fill="none" xmlns="http://www.w3.org/2000/svg">
    <path d="M5 0.855469C2.235 0.855469 0 3.09047 0 5.85547C0 8.62047 2.235 10.8555 5 10.8555C7.765 10.8555 10 8.62047 10 5.85547C10 3.09047 7.765 0.855469 5 0.855469ZM7.15 8.00547C6.955 8.20047 6.64 8.20047 6.445 8.00547L5 6.56047L3.555 8.00547C3.36 8.20047 3.045 8.20047 2.85 8.00547C2.655 7.81047 2.655 7.49547 2.85 7.30047L4.295 5.85547L2.85 4.41047C2.655 4.21547 2.655 3.90047 2.85 3.70547C3.045 3.51047 3.36 3.51047 3.555 3.70547L5 5.15047L6.445 3.70547C6.64 3.51047 6.955 3.51047 7.15 3.70547C7.345 3.90047 7.345 4.21547 7.15 4.41047L5.705 5.85547L7.15 7.30047C7.34 7.49047 7.34 7.81047 7.15 8.00547Z" fill="#FF1E00"/>
</svg>
